<?xml version="1.0" encoding="UTF-8"?><svg id="Layer_2" xmlns="http://www.w3.org/2000/svg" viewBox="0 0 58.85 58.87"><defs><style>.cls-1{fill:#005cf9;}.cls-2{fill:#001333;}.cls-3{fill:#f0f2f2;}.cls-4{fill:#e6e6e6;}.cls-5{fill:#fafefe;}.cls-6{fill:#edeff1;}.cls-7{fill:#f5a623;}.cls-8{fill:#eceff2;}.cls-9{fill:#ecf1f3;}.cls-10{fill:#eff1f2;}.cls-11{fill:#ced0d2;}.cls-12{fill:#ced0d3;}.cls-13{fill:#cdd2d6;}.cls-14{fill:#d0d2d4;}.cls-15{fill:#c3d1d9;}.cls-16{fill:#0591fd;}</style></defs><g id="Layer_1-2"><g id="lO4upp"><g><path class="cls-1" d="M15.21,55.21c-1.04-.67-2.12-1.29-3.12-2.03-5.3-3.9-8.92-9-10.85-15.29C.21,34.51-.17,31.03,.07,27.51c.44-6.5,2.76-12.26,7-17.21C11.27,5.4,16.54,2.22,22.82,.75,25.65,.08,28.52-.13,31.43,.07c3.89,.26,7.59,1.25,11.08,2.99,4.4,2.19,8.02,5.29,10.88,9.28,2.43,3.39,4.05,7.14,4.88,11.23,.53,2.63,.69,5.29,.5,7.97-.36,5.07-1.94,9.73-4.72,13.98-2.56,3.92-5.89,7.04-9.93,9.39-.15,.09-.3,.18-.44,.27-.24,.03-.23-.17-.28-.31-.45-1.19-1.01-2.32-1.73-3.36-.57-.83-1.17-1.63-1.93-2.29-.01-.23,.21-.26,.34-.35,3.58-2.43,6.11-5.67,7.55-9.75,.08-.22,.16-.43,.23-.64,.1-.02,.17-.04,.24-.06,1.1-.31,1.73-1.13,1.73-2.28,0-2.22,0-4.43,0-6.65,0-1.01-.49-1.73-1.41-2.11-.26-.11-.38-.25-.46-.51-1.63-4.87-4.69-8.58-9.17-11.09-1.89-1.06-3.91-1.74-6.04-2.12-.11-.11-.22-.22-.35-.32-.7-.55-1.5-.84-2.36-.99,0-2.04,0-4.08,0-6.13,.11-.07,.23-.13,.34-.2,.62-.4,.92-1.14,.74-1.82-.19-.73-.78-1.25-1.47-1.3-.79-.06-1.48,.34-1.76,1.03-.29,.69-.11,1.45,.47,1.95,.15,.13,.33,.23,.5,.34,0,.07-.02,.14-.02,.22,0,1.78,0,3.56,0,5.34,0,.1,.02,.2,.03,.3v.2c-.13,.05-.26,.12-.39,.16-.22,.07-.45,.1-.66,.19-.55,.22-1.1,.44-1.48,.92h0l-.16,.11c-.13,.03-.25,.07-.38,.09-3.57,.68-6.7,2.25-9.39,4.68-2.57,2.33-4.4,5.15-5.46,8.46-.08,.24-.19,.38-.44,.47-.7,.26-1.16,.78-1.35,1.5-.07,.28-.09,.58-.1,.87,0,2.07,0,4.14,0,6.21,0,.16,.01,.32,.03,.48,.11,1.04,.84,1.84,1.82,2.03,1.01,.19,1.99-.3,2.48-1.24,.05-.1,.13-.18,.19-.28l.02,.13v3.4l.03,.36c.03,.24,.03,.49,.09,.73,.49,1.97,2.18,3.3,4.2,3.31,1.21,0,2.42,0,3.63,0,.13,0,.26,.01,.39,.02,.1,.6,.43,1,.89,1.32,.08,.05,.13,.15,.19,.22l-.09,.07-.18,.1h0c-.11,.04-.22,.08-.32,.13-2.13,1.18-3.86,2.79-5.23,4.8-.71,1.04-1.28,2.15-1.72,3.33-.05,.14-.04,.34-.26,.35Z"/><path class="cls-4" d="M22.91,46.5l.09-.07c.08,.03,.17,.04,.25,.08,1.74,.88,3.62,1.13,5.53,1.23,1.3,.07,2.59-.06,3.86-.27,.6-.1,1.18-.29,1.76-.47,.48-.15,.94-.36,1.41-.55l.16,.08c.29,.35,.59,.7,.86,1.07,.32,.44,.62,.89,.92,1.35,.05,.08,.04,.19,.06,.29-1.08,.54-2.19,1-3.37,1.31-.27-.3-.58-.49-.98-.42-.79,.13-1.57,.27-2.35,.44-.42,.09-.66,.39-.77,.81-.09,.34,.03,.6,.25,.87,.33,.38,.74,.37,1.17,.31,.63-.09,1.26-.22,1.88-.34,.38-.08,.73-.22,.89-.62,.08-.19,.23-.25,.4-.29,1.18-.34,2.3-.81,3.4-1.35,.29,.59,.63,1.15,.86,1.76,.38,1,.71,2.02,1.01,3.04,.19,.63,.28,1.29,.41,1.94-.77,.27-1.53,.55-2.31,.8-1.31,.43-2.65,.74-4.02,.96-1.13,.18-2.26,.35-3.41,.35-.62,0-1.25,.09-1.87,.07-.78-.02-1.56-.12-2.34-.16-1.05-.05-2.07-.25-3.09-.44-1.07-.2-2.12-.48-3.16-.83-.72-.24-1.42-.5-2.13-.76,0-.15-.01-.3,.02-.44,.35-1.62,.79-3.22,1.48-4.73,.38-.83,.79-1.64,1.25-2.43,.31-.54,.72-1.02,1.07-1.53,.22-.32,.43-.64,.64-.96h0l.18-.1Z"/><path class="cls-10" d="M22.73,46.6c-.21,.32-.42,.65-.64,.96-.36,.51-.77,.99-1.07,1.53-.45,.79-.87,1.6-1.25,2.43-.69,1.51-1.13,3.11-1.48,4.73-.03,.14-.01,.29-.02,.44-1.06-.41-2.09-.89-3.06-1.47,.22-.01,.21-.22,.26-.35,.44-1.18,1.01-2.29,1.72-3.33,1.36-2.01,3.1-3.62,5.23-4.8,.1-.06,.21-.09,.32-.14Z"/><path class="cls-3" d="M40.61,56.69c-.13-.65-.23-1.31-.41-1.94-.3-1.02-.63-2.04-1.01-3.04-.23-.61-.57-1.17-.86-1.76,.33-.19,.66-.4,.99-.58,.12-.07,.27-.08,.4-.12,.76,.67,1.36,1.47,1.93,2.29,.72,1.05,1.29,2.17,1.73,3.36,.05,.14,.04,.34,.28,.31-.73,.37-1.46,.76-2.19,1.12-.28,.14-.58,.24-.88,.36Z"/><path class="cls-6" d="M13.56,40.23v-3.16l-.02-.13c.03-.4,.08-.81,.08-1.21,.01-1.29,0-2.59,0-3.88,0-.21-.06-.43-.06-.64,0-.2-.03-.43,.05-.59,.1-.17,.08-.33,.09-.5,.01-.19,.01-.38,.05-.57,.19-1.17,.48-2.31,.92-3.41,1.65-4.07,4.44-7.04,8.44-8.87,.5-.23,1.02-.42,1.54-.63,.68-.16,1.35-.33,2.03-.47,.65-.13,1.31-.24,1.99-.23,.6,.02,1.2-.01,1.79,.01,.45,.02,.9,.06,1.34,.15,.81,.16,1.61,.36,2.42,.54,.16,.06,.33,.13,.49,.19,4.23,1.56,7.31,4.38,9.2,8.48,.69,1.49,1.13,3.06,1.28,4.7,.12,.24,.23,.47,.09,.74-.01,.02-.01,.06-.01,.09,0,1.85,0,3.7,0,5.55,0,.18,.02,.37,.02,.55,0,1.27-.02,2.53-.02,3.8-.06,.13-.11,.26-.18,.39-.15,.28-.28,.58-.48,.83-.7,.86-1.61,1.24-2.72,1.24-8.26,0-16.52,0-24.79,0-.32,0-.64-.03-.95-.09-.98-.19-1.68-.77-2.18-1.6-.13-.22-.25-.45-.37-.67l-.03-.36v-.24Zm3.65-9.82l-.05,.43c-.11,.04-.15,.1-.03,.18-.02,2.17-.05,4.35-.07,6.52,0,.54,.1,1.05,.38,1.5,.53,.84,1.29,1.22,2.28,1.22,6.46,0,12.93,0,19.39,0,.07,0,.15,0,.22,0,1.37-.08,2.43-1.15,2.41-2.51-.02-2.45,.11-4.9-.1-7.35,.2-.2,.01-.41,0-.62-.05-.89-.28-1.75-.57-2.59-.42-1.22-1.02-2.34-1.78-3.39-.53-.73-1.14-1.41-1.83-1.99-.98-.83-2.05-1.52-3.24-2.02-1.25-.52-2.53-.87-3.87-.95-.88-.05-1.78-.02-2.66,.09-1.47,.19-2.84,.68-4.14,1.39-1.37,.75-2.54,1.76-3.54,2.94-1.04,1.23-1.84,2.62-2.3,4.18-.24,.82-.41,1.66-.59,2.49-.03,.14,.05,.3,.07,.45Z"/><path class="cls-5" d="M13.7,30.12c0,.17,0,.32-.09,.5-.09,.16-.06,.39-.05,.59,0,.22,.06,.43,.06,.64,0,1.29,0,2.59,0,3.88,0,.4-.05,.81-.08,1.21-.07,.09-.14,.18-.19,.28-.49,.94-1.47,1.43-2.48,1.24-.99-.18-1.71-.99-1.82-2.03-.02-.16-.03-.32-.03-.48,0-2.07,0-4.14,0-6.21,0-.29,.02-.59,.1-.87,.19-.72,.66-1.23,1.35-1.5,.25-.09,.36-.23,.44-.47,1.06-3.31,2.89-6.13,5.46-8.46,2.69-2.43,5.82-4,9.39-4.68,.13-.02,.26-.06,.38-.09l.16-.11h0c.23,0,.46,.02,.69,0,.43-.03,.86-.12,1.3-.13,1.49-.05,2.97,0,4.44,.25,2.13,.38,4.15,1.06,6.04,2.12,4.48,2.51,7.54,6.21,9.17,11.09,.09,.25,.2,.4,.46,.51,.92,.39,1.41,1.1,1.41,2.11,0,2.22,0,4.43,0,6.65,0,1.15-.63,1.97-1.73,2.28-.07,.02-.14,.04-.24,.06-.07,.21-.15,.42-.23,.64-1.44,4.09-3.97,7.33-7.55,9.75-.13,.09-.35,.12-.34,.35-.13,.04-.28,.06-.4,.12-.34,.18-.66,.39-.99,.58-1.1,.54-2.22,1.02-3.4,1.35-.17,.05-.33,.1-.4,.29-.16,.4-.51,.55-.89,.62-.63,.12-1.25,.25-1.88,.34-.42,.06-.84,.08-1.17-.31-.22-.26-.34-.52-.25-.87,.11-.41,.35-.72,.77-.81,.78-.17,1.56-.3,2.35-.44,.39-.07,.7,.12,.98,.42,1.18-.31,2.29-.77,3.37-1.31,.16-.09,.33-.17,.49-.27,.22-.14,.44-.3,.66-.45,.13-.05,.28-.08,.39-.16,3.58-2.33,6.09-5.51,7.51-9.55,.04-.12,.07-.24,.11-.39-.75-.27-1.29-.73-1.56-1.46,0-.02-.07-.02-.11-.03,0-.18-.02-.37-.02-.55,0-1.85,0-3.7,0-5.55,0-.03,0-.06,.01-.09,.15-.27,.03-.5-.09-.74,.03-.2,.07-.4,.09-.6,.07-.88,.47-1.55,1.25-1.97,.07-.04,.15-.08,.21-.12,0-.06,.02-.09,.01-.11-.03-.1-.05-.2-.09-.29-1.13-3.25-3.02-5.96-5.67-8.15-2.09-1.73-4.46-2.9-7.08-3.59-.07-.01-.15-.02-.22-.03-1.39-.34-2.79-.54-4.22-.51-.73,.01-1.46,.03-2.18,.11-.77,.1-1.54,.28-2.31,.43-7.16,1.79-11.6,7.51-12.86,12.13,0,.01,.02,.02,.03,.03,.04,.02,.07,.05,.11,.07,.87,.45,1.32,1.16,1.31,2.15,0,.18,0,.35,0,.52,0,.01,.08,.02,.12,.03Z"/><path class="cls-14" d="M13.6,40.83c.12,.22,.24,.45,.37,.67,.5,.84,1.2,1.42,2.18,1.6,.31,.06,.63,.09,.95,.09,8.26,0,16.52,0,24.79,0,1.1,0,2.02-.39,2.72-1.24,.2-.24,.33-.55,.48-.83,.07-.12,.12-.26,.18-.39,0,1.09-.44,2.01-1.18,2.79-.84,.89-1.9,1.33-3.13,1.34-1.18,0-2.36,0-3.54,0h-.44c-.26,.76-.34,.86-.93,1.35-.07,.06-.12,.15-.19,.23-.02,0-.04,0-.06,.01-.47,.19-.93,.39-1.41,.55-.58,.19-1.16,.37-1.76,.47-1.28,.21-2.57,.34-3.86,.27-1.91-.1-3.79-.35-5.53-1.23-.08-.04-.16-.05-.25-.08-.06-.08-.12-.17-.19-.22-.46-.32-.79-.73-.89-1.32-.13,0-.26-.02-.39-.02-1.21,0-2.42,0-3.63,0-2.02-.01-3.72-1.34-4.2-3.31-.06-.24-.06-.49-.09-.73Z"/><path class="cls-13" d="M28.82,6.22c-.17-.11-.35-.21-.5-.34-.58-.49-.75-1.25-.47-1.95,.28-.69,.97-1.09,1.76-1.03,.7,.06,1.28,.57,1.47,1.3,.18,.68-.12,1.42-.74,1.82-.11,.07-.23,.13-.34,.2-.37,.12-.75,.12-1.13,0-.02,0-.04,0-.06-.01Z"/><path class="cls-8" d="M28.89,6.23c.38,.11,.75,.11,1.13,0,0,2.04,0,4.08,0,6.13-.16,0-.31,.01-.47,0-.24-.02-.47-.05-.71-.08v-.2c.01-.16,.04-.32,.04-.47,0-1.79,0-3.58,0-5.37Z"/><path class="cls-15" d="M28.84,12.28c.24,.03,.47,.06,.71,.08,.16,.01,.31,0,.47,0,.86,.15,1.67,.45,2.36,.99,.12,.1,.23,.21,.35,.32-1.47-.26-2.95-.3-4.44-.25-.43,.01-.86,.1-1.3,.13-.23,.02-.46,0-.69,0,.39-.48,.94-.7,1.48-.92,.21-.09,.44-.12,.66-.19,.13-.04,.26-.11,.39-.16Z"/><path class="cls-15" d="M28.89,6.23c0,1.79,0,3.58,0,5.37,0,.16-.02,.32-.04,.47-.01-.1-.03-.2-.03-.3,0-1.78,0-3.56,0-5.34,0-.07,.01-.14,.02-.22,.02,0,.04,0,.06,.01Z"/><path class="cls-14" d="M13.56,40.23v0Z"/><path class="cls-15" d="M26.3,13.55l-.16,.11,.16-.11Z"/><path class="cls-5" d="M13.56,37.07v0Z"/><path class="cls-10" d="M22.91,46.5l-.18,.1,.18-.1Z"/><path class="cls-9" d="M38.95,48.52c-.22,.15-.43,.31-.66,.45-.16,.1-.32,.18-.49,.27-.02-.1-.01-.21-.06-.29-.3-.46-.6-.91-.92-1.35-.27-.37-.57-.71-.86-1.07h0c.28,.13,.58,.26,.85,.43,.76,.46,1.5,.94,2.13,1.57Z"/><path class="cls-9" d="M35.8,46.45s.04,0,.06-.01l.11,.08h0l-.16-.07Z"/><path class="cls-2" d="M17.17,30.83l.05-.43c.03-.07,.07-.13,.08-.2,.29-1.6,.86-3.09,1.72-4.46,2.58-4.13,7.18-6.5,12.26-5.74,4.89,.73,8.94,4.46,10.11,9.26,.09,.38,.18,.76,.27,1.14,.2,2.45,.07,4.9,.1,7.35,.01,1.36-1.04,2.43-2.41,2.51-.07,0-.15,0-.22,0-6.46,0-12.93,0-19.39,0-.98,0-1.75-.39-2.28-1.22-.29-.46-.39-.97-.38-1.5,.02-2.17,.05-4.35,.07-6.52l.03-.18Zm12.26,1.69c-1.11,0-2.22,0-3.32,0-.62,0-.76,.16-.65,.76,0,.06,.02,.11,.04,.17,.42,1.83,2.05,3.02,3.67,3.11,1.81,.11,3.54-.99,4.12-2.81,.07-.23,.13-.48,.15-.73,.03-.33-.12-.48-.45-.51-.1,0-.2,0-.31,0-1.08,0-2.16,0-3.24,0Zm5.43-5.17c-.81,0-1.48,.67-1.48,1.47,0,.83,.66,1.5,1.49,1.5,.83,0,1.5-.68,1.48-1.51-.01-.81-.68-1.46-1.49-1.46Zm-9.39,1.5c0-.85-.65-1.51-1.49-1.5-.81,0-1.47,.66-1.48,1.48-.02,.82,.67,1.5,1.5,1.5,.82,0,1.46-.65,1.47-1.47Z"/><path class="cls-1" d="M13.7,30.12s-.12-.02-.12-.03c0-.17-.01-.35,0-.52,0-.99-.43-1.7-1.31-2.15-.04-.02-.07-.05-.11-.07-.01,0-.02-.02-.03-.03,1.26-4.63,5.7-10.34,12.86-12.13-.11,.49-.22,.97-.33,1.46-.51,.21-1.03,.4-1.54,.63-4,1.83-6.79,4.8-8.44,8.87-.45,1.1-.73,2.24-.92,3.41-.03,.19-.03,.38-.05,.57Z"/><path class="cls-1" d="M33.9,15.18c2.62,.69,4.99,1.86,7.08,3.59,2.65,2.19,4.54,4.91,5.67,8.15,.03,.1,.06,.19,.09,.29,0,.03,0,.06-.01,.11-.06,.03-.13,.08-.21,.12-.78,.43-1.19,1.09-1.25,1.97-.01,.2-.06,.4-.09,.6-.15-1.64-.59-3.21-1.28-4.7-1.89-4.09-4.96-6.92-9.2-8.48-.16-.06-.33-.12-.49-.19-.08-.36-.17-.73-.25-1.09-.03-.12-.05-.25-.07-.37Z"/><path class="cls-11" d="M41.66,30.4c-.09-.38-.18-.76-.27-1.14-1.17-4.8-5.22-8.53-10.11-9.26-5.09-.76-9.68,1.61-12.26,5.74-.86,1.37-1.44,2.86-1.72,4.46-.01,.07-.05,.13-.08,.2-.03-.15-.1-.31-.07-.45,.18-.84,.35-1.68,.59-2.49,.46-1.55,1.25-2.95,2.3-4.18,1-1.18,2.16-2.19,3.54-2.94,1.3-.71,2.68-1.21,4.14-1.39,.88-.11,1.77-.14,2.66-.09,1.34,.08,2.62,.43,3.87,.95,1.2,.5,2.27,1.19,3.24,2.02,.69,.58,1.29,1.26,1.83,1.99,.76,1.04,1.37,2.17,1.78,3.39,.29,.84,.52,1.69,.57,2.59,.01,.21,.19,.41,0,.62Z"/><path class="cls-16" d="M35.97,46.52l-.11-.08c.06-.08,.11-.16,.19-.23,.59-.49,.67-.59,.93-1.35h.44c1.18,0,2.36,0,3.54,0,1.22,0,2.28-.45,3.13-1.34,.73-.77,1.18-1.69,1.18-2.79,0-1.27,.02-2.53,.02-3.8,.04,0,.11,0,.11,.03,.27,.73,.81,1.19,1.56,1.46-.04,.14-.06,.27-.11,.39-1.41,4.04-3.93,7.21-7.51,9.55-.12,.08-.26,.11-.39,.16-.63-.63-1.38-1.11-2.13-1.57-.27-.16-.56-.29-.85-.44Z"/><path class="cls-12" d="M33.9,15.18c.02,.12,.04,.25,.07,.37,.08,.36,.17,.73,.25,1.09-.81-.18-1.61-.38-2.42-.54-.44-.09-.89-.13-1.34-.15-.6-.02-1.2,0-1.79-.01-.67-.02-1.33,.1-1.99,.23-.68,.13-1.36,.31-2.03,.47,.11-.49,.22-.97,.33-1.46,.77-.15,1.53-.33,2.31-.43,.72-.09,1.45-.1,2.18-.11,1.43-.03,2.84,.17,4.22,.51,.07,.02,.14,.02,.22,.03Z"/><path class="cls-11" d="M17.17,30.83l-.03,.18c-.12-.08-.08-.14,.03-.18Z"/><path class="cls-7" d="M29.43,32.52c1.08,0,2.16,0,3.24,0,.1,0,.2,0,.31,0,.34,.03,.48,.18,.45,.51-.02,.24-.07,.49-.15,.73-.58,1.82-2.3,2.92-4.12,2.81-1.62-.1-3.25-1.28-3.67-3.11-.01-.06-.03-.11-.04-.17-.1-.6,.03-.76,.65-.76,1.11,0,2.22,0,3.32,0Z"/><path class="cls-7" d="M34.86,27.35c.81,0,1.48,.65,1.49,1.46,.01,.83-.65,1.51-1.48,1.51-.84,0-1.5-.67-1.49-1.5,0-.8,.68-1.47,1.48-1.47Z"/><path class="cls-7" d="M25.47,28.85c0,.82-.65,1.47-1.47,1.47-.84,0-1.52-.68-1.5-1.5,.01-.82,.68-1.47,1.48-1.48,.84,0,1.49,.66,1.49,1.5Z"/></g></g></g></svg>